<?xml version="1.0" encoding="UTF-8" standalone="no"?>
<!-- Created with Inkscape (http://www.inkscape.org/) -->
<svg id="svg2443" xmlns="http://www.w3.org/2000/svg" xml:space="preserve" height="73.804" width="179.03" version="1.0"><defs id="defs2446"><clipPath id="clipPath2494"><path id="path2496" d="m0 0h594v783h-594v-783z"/></clipPath></defs><g id="g4474" transform="translate(-159.78 -77.047)"><rect id="rect3687" height="73.804" width="179.03" y="77.047" x="159.78" fill="#1a55a0"/><g id="g2490" fill="#fff" transform="matrix(1.25 0 0 -1.25 -39.238 991.74)"><g id="g2492" fill="#fff" clip-path="url(#clipPath2494)"><g id="g2498" transform="translate(196.4 716.88)"><path id="path2500" d="m0 0c4.085-6.493 2.13-15.101-4.361-19.186s-15.099-2.13-19.185 4.359c-1.445 2.298-2.134 4.86-2.134 7.392 0 4.626 2.301 9.154 6.495 11.795 6.493 4.085 15.1 2.129 19.185-4.36m-19.847 5.415v-0.001c-7.072-4.451-9.203-13.829-4.753-20.903 4.454-7.071 13.83-9.203 20.903-4.751 7.071 4.452 9.203 13.83 4.751 20.902-4.451 7.071-13.826 9.202-20.901 4.753" fill="#fff"/></g><g id="g2502" transform="translate(182.84 701.51)"><path id="path2504" d="m0 0c-7.467 1.698-12.737 6.624-11.747 10.979 0.989 4.353 7.871 6.516 15.341 4.82 7.466-1.7 12.736-6.624 11.746-10.978-0.989-4.355-7.872-6.518-15.34-4.821m-12.348 11.116c-1.066-4.688 4.414-9.943 12.212-11.716 7.799-1.773 15.012 0.597 16.079 5.284 1.063 4.687-4.415 9.941-12.212 11.715-7.802 1.771-15.015-0.597-16.079-5.283" fill="#fff"/></g><g id="g2506" transform="translate(183.55 722.1)"><path id="path2508" d="m0 0c1.481 0.915 2.996 1.224 4.382 0.897 4.345-1.027 6.451-7.925 4.691-15.378-1.763-7.454-6.732-12.683-11.079-11.657-3.302 0.78-5.309 4.955-5.309 10.188 0 1.649 0.199 3.404 0.62 5.191 1.131 4.785 3.696 8.909 6.695 10.759m-0.325 0.525c-3.179-1.964-5.785-6.13-6.969-11.143-1.836-7.784 0.472-15.018 5.147-16.12 4.677-1.105 9.98 4.329 11.82 12.116 1.837 7.783-0.474 15.013-5.15 16.119-1.548 0.365-3.223 0.029-4.848-0.972" fill="#fff"/></g><g id="g2510" transform="translate(177.03 721.82)"><path id="path2512" d="m0 0l0.339-0.524c1.536 0.995 6.67-3.028 10.989-9.703 4.523-6.999 5.97-12.733 4.482-13.702l0.339-0.522c2.339 1.52-0.468 8.638-4.3 14.563-4.337 6.707-9.765 11.235-11.849 9.888" fill="#fff"/></g><g id="g2514" transform="translate(174.54 720)"><path id="path2516" d="m0 0l0.336-0.523c1.463 0.944 6.201-2.81 10.66-9.706 3.419-5.279 5.462-10.57 4.969-12.868-0.085-0.399-0.248-0.679-0.483-0.831l0.337-0.524c0.38 0.246 0.634 0.659 0.755 1.225 0.532 2.485-1.499 7.845-5.056 13.336-3.885 6.008-9.257 11.351-11.518 9.891" fill="#fff"/></g><g id="g2518" transform="translate(197.03 716.23)"><path id="path2520" d="m0 0c0.148-0.238 0.177-0.559 0.088-0.956-0.519-2.289-4.601-6.229-9.925-9.58-7.019-4.417-12.969-5.817-13.919-4.312l-0.527-0.331c1.465-2.323 8.663 0.27 14.778 4.117 5.54 3.485 9.638 7.492 10.2 9.968 0.128 0.564 0.071 1.044-0.169 1.425l-0.526-0.331z" fill="#fff"/></g><g id="g2522" transform="translate(195.24 719.07)"><path id="path2524" d="m0 0c0.925-1.473-2.887-6.164-9.837-10.541-7.058-4.439-12.811-5.813-13.756-4.312l-0.528-0.331c1.488-2.363 8.641 0.356 14.616 4.118 6.056 3.813 11.464 9.12 10.03 11.397l-0.525-0.331z" fill="#fff"/></g><g id="g2526" transform="translate(193.46 727.97)"><path id="path2528" d="m0 0c0-1.344 1.094-2.432 2.439-2.432 1.344 0 2.437 1.088 2.437 2.432 0 1.351-1.093 2.44-2.437 2.44-1.345 0-2.439-1.089-2.439-2.44" fill="#fff"/></g><g id="g2530" transform="translate(174.22 729)"><path id="path2532" d="m0 0c0-0.536 0.438-0.976 0.976-0.976 0.54 0.001 0.975 0.439 0.975 0.976 0 0.54-0.435 0.978-0.975 0.978-0.538 0-0.976-0.438-0.976-0.978" fill="#fff"/></g><g id="g2534" transform="translate(171.08 694.33)"><path id="path2536" d="m0 0c0-0.54 0.437-0.975 0.974-0.975 0.538 0 0.974 0.435 0.974 0.975 0 0.539-0.437 0.977-0.974 0.977s-0.975-0.438-0.974-0.977" fill="#fff"/></g><g id="g2538" transform="translate(162.29 717.19)"><path id="path2540" d="m0 0c0-0.538 0.436-0.976 0.974-0.976 0.537 0 0.972 0.438 0.972 0.976 0 0.539-0.434 0.975-0.972 0.975-0.539 0-0.974-0.436-0.974-0.975" fill="#fff"/></g><g id="g2542" transform="translate(199.45 700.06)"><path id="path2544" d="m0 0c0-0.536 0.433-0.972 0.976-0.972 0.534 0 0.972 0.435 0.972 0.972 0 0.54-0.438 0.975-0.971 0.975-0.544 0-0.977-0.435-0.977-0.975" fill="#fff"/></g><g id="g2546" transform="translate(179.83 709.5)"><path id="path2548" d="m0 0c0-0.806 0.654-1.46 1.462-1.46 0.803 0 1.46 0.654 1.46 1.46s-0.657 1.463-1.46 1.463c-0.807 0-1.462-0.657-1.462-1.463" fill="#fff"/></g><g id="g2550" transform="translate(204.13 704.14)"><path id="path2552" d="m0 0c0-0.808 0.653-1.463 1.463-1.463 0.803 0 1.46 0.655 1.46 1.463 0 0.805-0.657 1.462-1.46 1.462-0.81 0-1.463-0.657-1.463-1.462" fill="#fff"/></g><g id="g2554" transform="translate(202.64 721.2)"><path id="path2556" d="m0 0c0-0.675 0.544-1.22 1.215-1.22 0.674 0 1.221 0.545 1.221 1.22 0 0.674-0.547 1.218-1.22 1.218-0.672 0-1.216-0.544-1.216-1.218" fill="#fff"/></g><g id="g2558" transform="translate(165.51 722.85)"><path id="path2560" d="m0 0c0-1.076 0.872-1.95 1.948-1.95 1.078 0 1.952 0.874 1.952 1.95 0 1.077-0.874 1.951-1.952 1.95-1.076 0.001-1.949-0.873-1.948-1.95" fill="#fff"/></g><g id="g2562" transform="translate(190.19 689.82)"><path id="path2564" d="m0 0c0-1.075 0.872-1.949 1.949-1.949 1.076 0 1.948 0.874 1.948 1.949 0 1.076-0.872 1.953-1.948 1.953-1.077 0-1.949-0.875-1.949-1.953" fill="#fff"/></g><g id="g2566" transform="translate(163.76 701.36)"><path id="path2568" d="m0 0c0-0.674 0.544-1.22 1.213-1.22 0.678 0 1.223 0.546 1.223 1.22s-0.545 1.217-1.223 1.217c-0.669 0-1.213-0.543-1.213-1.217" fill="#fff"/></g><g id="g2570" transform="translate(165.3 712.02)"><path id="path2572" d="m0 0c0-0.675 0.546-1.219 1.219-1.219 0.674 0 1.218 0.544 1.218 1.219 0 0.672-0.544 1.218-1.218 1.218-0.673 0-1.219-0.544-1.219-1.218" fill="#fff"/></g><g id="g2574" transform="translate(224.54 690.13)"><path id="path2576" d="m0 0c0.749-0.045 1.539-0.179 2.289-0.179 4.063 0 6.076 1.971 6.076 6.803 0 4.341-1.816 6.58-5.642 6.58-0.474 0-2.053 0-2.444-0.272-0.316-0.225-0.279-0.714-0.279-1.835v-11.097zm0-6.62c0-1.431 0-4.743 0.396-5.953 0.553-1.747 2.406-1.43 3.789-1.521v-1.032c-2.053 0.047-9.982 0.047-11.956 0v1.032c1.263-0.001 2.92-0.001 3.354 1.521 0.354 1.21 0.354 4.522 0.354 5.954v12.57c0 1.478-0.001 4.79-0.354 5.998-0.474 1.566-2.091 1.523-3.354 1.523v1.028c2.011-0.044 8.775 0.108 11.598 0 4.263-0.164 9.073-2.061 9.073-7.741 0-6.533-5.56-8.1-10.257-8.1-0.709 0-2.486 0.135-2.643 0.135v-5.414z" fill="#fff"/></g><g id="g2578" transform="translate(242.68 696.13)"><path id="path2580" d="m0 0c0 1.429 0 4.741-0.396 5.949-0.51 1.523-2.129 1.523-3.391 1.523v1.028c2.223-0.05 9.953-0.037 11.638 0v-1.028c-1.261 0-2.88 0-3.392-1.523-0.397-1.208-0.397-4.52-0.397-5.949v-13.248c0-5.73 0.789-6.664 5.8-6.664 1.857 0 3.677 0.457 4.53 1.172 1.481 1.235 2.153 3.49 2.508 5.994h0.938l-0.503-8.38c-0.67 0.046-14.336 0.046-21.122 0v1.032c1.262 0 2.881 0 3.391 1.521 0.396 1.209 0.396 4.522 0.396 5.952v12.621z" fill="#fff"/></g><g id="g2582" transform="translate(264.02 690.97)"><path id="path2584" d="m0 0c0-4.25 1.105-9.174 5.72-9.174 4.303 0 5.367 4.924 5.366 8.907 0 4.293-1.063 9.308-5.721 9.308-4.302 0-5.365-5.147-5.365-9.041m15.029 0c0-6.042-4.337-10.201-9.505-10.201-5.127 0-9.47 4.472-9.47 10.378 0 5.729 4.658 9.891 9.47 9.891 4.892 0 9.505-4.295 9.505-10.068" fill="#fff"/></g><g id="g2586" transform="translate(281.45 683.38)"><path id="path2588" d="m0 0h0.948c0.786-4.517 3.08-8.113 7.618-8.113 3.078 0 5.642 1.966 5.642 5.59 0 4.071-3.118 6.138-5.993 7.438-3.593 1.563-7.421 3.712-7.421 8.813 0 5.099 3.51 8.052 7.814 8.052 2.167 0 4.18-0.849 5.955-2.282l0.906 1.748h0.437l0.193-7.742h-0.907c-0.908 3.711-2.76 7.07-6.584 7.07-2.526 0-4.616-1.833-4.616-4.743 0-3.535 2.796-4.746 5.243-5.908 4.108-1.922 8.68-4.705 8.68-10.567 0-5.861-4.812-8.68-9.426-8.68-2.686 0-4.773 0.896-6.905 2.685l-0.764-2.172h-0.432l-0.388 8.811z" fill="#fff"/></g></g></g></g></svg>
